<svg xmlns="http://www.w3.org/2000/svg" width="283.22" height="298.575" viewBox="0 0 283.22 298.575">
  <path id="Path_20595" data-name="Path 20595" d="M278.873,102.232c-.577,1.855-1.171,3.694-1.857,5.5H210.838a36.141,36.141,0,0,0,4.394-5.5Zm-59.76-8.075a36.4,36.4,0,0,1-1.746,4.381h62.674c.39-1.449.656-2.929.965-4.381Zm56.844,16.165h-67.91a35.881,35.881,0,0,1-11.956,6.592h76.921q1.588-3.25,2.945-6.592M196.824,61.771h85.462C276.706,25.938,247.5,0,207.719,0H52.651L41.77,61.771H196.824Zm23.706,24.3a26.209,26.209,0,0,1-.278,3.272H282.02c.187-1.09.265-2.183.406-3.272ZM272.247,118.4H52.37L41.476,180.181H175.954c15.618,0,26.076,12.7,23.318,28.321-2.76,15.6-17.692,28.305-33.31,28.305H10.894L0,298.575H155.068c49.691,0,97.23-40.4,105.989-90.074,3.99-22.678-.843-43.362-11.924-59.214A114.866,114.866,0,0,0,272.247,118.4M215.231,69.905c.281.343.546.7.8,1.061H283.22c-.016-.359-.078-.7-.094-1.061Zm4.3,8.09a19.084,19.084,0,0,1,.531,2.167h63.03c.047-.734.031-1.433.062-2.167Z" fill="#ffb900"/>
</svg>
